<svg xmlns="http://www.w3.org/2000/svg" viewBox="0 0 32 32" fill="none">
  <!-- TecFactory Favicon — AI Agent Factory icon -->
  <!-- Central gear/cog shape -->
  <path d="M16 5.5L18 3L20 5.5L23 5L23.5 8L26.5 9L26 12L28 14.5L26 17L26.5 20L23.5 21L23 24L20 23.5L18 26L16 23.5L13 24L12.5 21L9.5 20L10 17L8 14.5L10 12L9.5 9L12.5 8L13 5L16 5.5Z" fill="#ff8700"/>
  <!-- Inner circle (gear center) -->
  <circle cx="17" cy="14.5" r="5.5" fill="#1a1a2e"/>
  <!-- AI "eye" / neural dot in center -->
  <circle cx="17" cy="14.5" r="2.5" fill="#ff8700"/>
  <!-- Circuit connection nodes (agent outputs) -->
  <circle cx="3" cy="8" r="2.5" fill="#ff8700" opacity="0.7"/>
  <circle cx="3" cy="21" r="2.5" fill="#ff8700" opacity="0.7"/>
  <circle cx="31" cy="8" r="2.5" fill="#ff8700" opacity="0.7"/>
  <circle cx="31" cy="21" r="2.5" fill="#ff8700" opacity="0.7"/>
  <!-- Connection lines from center to nodes -->
  <line x1="11" y1="11" x2="5" y2="8.5" stroke="#ff8700" stroke-width="1.3" opacity="0.5"/>
  <line x1="11" y1="18" x2="5" y2="20.5" stroke="#ff8700" stroke-width="1.3" opacity="0.5"/>
  <line x1="23" y1="11" x2="29" y2="8.5" stroke="#ff8700" stroke-width="1.3" opacity="0.5"/>
  <line x1="23" y1="18" x2="29" y2="20.5" stroke="#ff8700" stroke-width="1.3" opacity="0.5"/>
  <!-- Bottom agent connector bar -->
  <rect x="10" y="28" width="12" height="2.5" rx="1.25" fill="#ff8700" opacity="0.6"/>
</svg>
